<svg width="49" height="58" viewBox="0 0 49 58" fill="none" xmlns="http://www.w3.org/2000/svg">
<path d="M24.5 29C28.213 29 31.774 27.4723 34.3995 24.753C37.025 22.0338 38.5 18.3456 38.5 14.5C38.5 10.6544 37.025 6.96623 34.3995 4.24695C31.774 1.52767 28.213 0 24.5 0C20.787 0 17.226 1.52767 14.6005 4.24695C11.975 6.96623 10.5 10.6544 10.5 14.5C10.5 18.3456 11.975 22.0338 14.6005 24.753C17.226 27.4723 20.787 29 24.5 29ZM19.5016 34.4375C8.72813 34.4375 0 43.4773 0 54.6355C0 56.4934 1.45469 58 3.24844 58H45.7516C47.5453 58 49 56.4934 49 54.6355C49 43.4773 40.2719 34.4375 29.4984 34.4375H19.5016Z" fill="#808080"/>
</svg>
