<svg width="58" height="58" viewBox="0 0 58 58" fill="none" xmlns="http://www.w3.org/2000/svg">
<path d="M49.938 8.40515L19.3333 19.3333V36.25L21.141 36.8952L18.4174 42.3424C18.1072 42.9617 17.9338 43.6404 17.9089 44.3326C17.884 45.0247 18.0083 45.7142 18.2732 46.3541C18.5382 46.994 18.9377 47.5695 19.4446 48.0415C19.9514 48.5135 20.5539 48.871 21.2111 49.0897L31.0807 52.3788C32.1848 52.7388 33.3811 52.6923 34.454 52.2479C35.5268 51.8034 36.4055 50.9902 36.9315 49.9549L40.0804 43.6571L49.938 47.1782C50.3025 47.3082 50.6929 47.3488 51.0764 47.2965C51.4599 47.2442 51.8252 47.1006 52.1416 46.8778C52.458 46.6549 52.7163 46.3593 52.8947 46.0158C53.073 45.6724 53.1663 45.2911 53.1666 44.9041V10.6792C53.1663 10.2922 53.073 9.91093 52.8947 9.56747C52.7163 9.224 52.458 8.92841 52.1416 8.70554C51.8252 8.48268 51.4599 8.33907 51.0764 8.28679C50.6929 8.23452 50.3025 8.27511 49.938 8.40515ZM32.6081 47.7944L22.7408 44.5053L25.7254 38.5337L35.4936 42.0234L32.6081 47.7944ZM9.66665 36.25H14.5V19.3333H9.66665C7.00106 19.3333 4.83331 21.5011 4.83331 24.1666V31.4167C4.83331 34.0822 7.00106 36.25 9.66665 36.25Z" fill="#808080"/>
</svg>
