<svg width="35" height="32" viewBox="0 0 35 32" fill="none" xmlns="http://www.w3.org/2000/svg">
<path d="M32.662 0.101367L10.5 7.98569V20.1905L11.809 20.656L9.83675 24.586C9.61212 25.0328 9.48654 25.5225 9.46853 26.0218C9.45052 26.5212 9.5405 27.0186 9.73236 27.4803C9.92423 27.942 10.2135 28.3572 10.5806 28.6977C10.9476 29.0383 11.3839 29.2962 11.8598 29.454L19.0068 31.827C19.8062 32.0867 20.6726 32.0531 21.4494 31.7325C22.2263 31.4118 22.8626 30.8251 23.2435 30.0782L25.5237 25.5345L32.662 28.0748C32.926 28.1687 33.2087 28.198 33.4864 28.1602C33.7641 28.1225 34.0286 28.0189 34.2577 27.8581C34.4869 27.6973 34.6739 27.4841 34.803 27.2363C34.9322 26.9885 34.9998 26.7134 35 26.4342V1.74205C34.9998 1.46282 34.9322 1.18774 34.803 0.939942C34.6739 0.692145 34.4869 0.47888 34.2577 0.318092C34.0286 0.157303 33.7641 0.0536924 33.4864 0.0159779C33.2087 -0.0217366 32.926 0.00754754 32.662 0.101367ZM20.1128 28.5195L12.9675 26.1465L15.1288 21.8382L22.2023 24.3559L20.1128 28.5195ZM3.5 20.1905H7V7.98569H3.5C1.56975 7.98569 0 9.54965 0 11.4728V16.7034C0 18.6266 1.56975 20.1905 3.5 20.1905Z" fill="white"/>
</svg>
