<svg width="16" height="25" viewBox="0 0 16 25" fill="none" xmlns="http://www.w3.org/2000/svg">
<path d="M1.60924 14.687H4.96357V23.0108C4.96357 23.3262 5.05192 23.6287 5.20919 23.8517C5.36645 24.0747 5.57975 24.1999 5.80216 24.1999H10.8337C11.0561 24.1999 11.2694 24.0747 11.4266 23.8517C11.5839 23.6287 11.6722 23.3262 11.6722 23.0108V14.687H15.0266C15.1845 14.6866 15.3391 14.6231 15.4726 14.5038C15.6062 14.3845 15.7133 14.2141 15.7817 14.0123C15.8501 13.8106 15.877 13.5855 15.8593 13.3631C15.8415 13.1406 15.7799 12.9298 15.6815 12.7547L8.97284 0.863564C8.65334 0.298734 7.98247 0.298734 7.66297 0.863564L0.954302 12.7547C0.855884 12.9298 0.794275 13.1406 0.776549 13.3631C0.758822 13.5855 0.785697 13.8106 0.854086 14.0123C0.922476 14.2141 1.02961 14.3845 1.16318 14.5038C1.29676 14.6231 1.45136 14.6866 1.60924 14.687Z" fill="#3684DB"/>
</svg>
