<svg width="50" height="50" viewBox="0 0 50 50" fill="none" xmlns="http://www.w3.org/2000/svg">
<path d="M27.0833 14.5833H22.9166V22.9166H14.5833V27.0833H22.9166V35.4166H27.0833V27.0833H35.4166V22.9166H27.0833V14.5833Z" fill="white"/>
<path d="M25.0001 4.16675C13.5126 4.16675 4.16675 13.5126 4.16675 25.0001C4.16675 36.4876 13.5126 45.8334 25.0001 45.8334C36.4876 45.8334 45.8334 36.4876 45.8334 25.0001C45.8334 13.5126 36.4876 4.16675 25.0001 4.16675ZM25.0001 41.6667C15.8105 41.6667 8.33342 34.1897 8.33342 25.0001C8.33342 15.8105 15.8105 8.33341 25.0001 8.33341C34.1897 8.33341 41.6668 15.8105 41.6668 25.0001C41.6668 34.1897 34.1897 41.6667 25.0001 41.6667Z" fill="white"/>
</svg>
