<svg width="45" height="45" viewBox="0 0 45 45" fill="none" xmlns="http://www.w3.org/2000/svg">
<path d="M31.8825 9.375H16.875C13.4288 9.375 10.1513 10.7569 7.6425 13.2675C5.13188 15.7781 3.75 19.0556 3.75 22.5C3.75 25.9462 5.13188 29.2237 7.6425 31.7325C10.1513 34.2431 13.4288 35.625 16.875 35.625H31.875V31.875H16.875C14.4319 31.875 12.0938 30.8831 10.2937 29.0812C8.49187 27.2812 7.5 24.9431 7.5 22.5C7.5 20.0588 8.49187 17.7206 10.2937 15.9187C12.0938 14.1169 14.4319 13.125 16.875 13.125H31.875H31.8825C33.3638 13.125 34.7681 13.7138 35.8369 14.7863C36.9075 15.8569 37.4981 17.265 37.5 18.7537C37.4994 19.4901 37.3526 20.219 37.068 20.8981C36.7835 21.5773 36.3669 22.1931 35.8425 22.71C35.3235 23.2353 34.7059 23.6528 34.025 23.9386C33.3441 24.2243 32.6134 24.3726 31.875 24.375H16.875C16.6306 24.372 16.3891 24.3208 16.1645 24.2243C15.9399 24.1278 15.7366 23.9878 15.5663 23.8125C15.3899 23.6419 15.2491 23.4381 15.1519 23.2129C15.0547 22.9876 15.0031 22.7453 15 22.5C15 22.0275 15.2063 21.5494 15.5644 21.1912C15.7345 21.0148 15.9379 20.8739 16.1629 20.7766C16.3879 20.6794 16.6299 20.6279 16.875 20.625H31.875V16.875H16.875C15.3938 16.875 13.9856 17.4656 12.9113 18.5419C11.8388 19.6144 11.25 21.0206 11.25 22.5C11.25 23.9794 11.8388 25.3875 12.915 26.4637C13.4325 26.9886 14.049 27.4057 14.7287 27.6909C15.4084 27.976 16.1379 28.1236 16.875 28.125H31.8769C33.1072 28.1241 34.3252 27.8796 35.4606 27.4056C36.5959 26.9315 37.6262 26.2374 38.4919 25.3631C39.3652 24.4972 40.0583 23.4668 40.5313 22.3315C41.0043 21.1962 41.2477 19.9785 41.2475 18.7487C41.2473 17.5188 41.0036 16.3012 40.5303 15.166C40.057 14.0309 39.3636 13.0007 38.49 12.135C37.6263 11.2603 36.5974 10.5659 35.4631 10.0921C34.3289 9.61831 33.1118 9.37456 31.8825 9.375Z" fill="white"/>
</svg>
