<svg width="36" height="36" viewBox="0 0 36 36" fill="none" xmlns="http://www.w3.org/2000/svg">
<path d="M30 4.5H6C5.20435 4.5 4.44129 4.81607 3.87868 5.37868C3.31607 5.94129 3 6.70435 3 7.5V28.5C3 29.2956 3.31607 30.0587 3.87868 30.6213C4.44129 31.1839 5.20435 31.5 6 31.5H30C30.7956 31.5 31.5587 31.1839 32.1213 30.6213C32.6839 30.0587 33 29.2956 33 28.5V7.5C33 6.70435 32.6839 5.94129 32.1213 5.37868C31.5587 4.81607 30.7956 4.5 30 4.5ZM16.5 25.5H7.5V22.5H16.5V25.5ZM28.5 19.5H7.5V16.5H28.5V19.5ZM28.5 13.5H7.5V10.5H28.5V13.5Z" fill="white"/>
</svg>
