<svg width="58" height="58" viewBox="0 0 58 58" fill="none" xmlns="http://www.w3.org/2000/svg">
<path d="M3.22222 32.2222H22.5556C23.4101 32.2222 24.2297 31.8827 24.834 31.2785C25.4383 30.6742 25.7778 29.8546 25.7778 29V3.22222C25.7778 2.36764 25.4383 1.54805 24.834 0.943767C24.2297 0.339483 23.4101 0 22.5556 0H3.22222C2.36764 0 1.54805 0.339483 0.943767 0.943767C0.339483 1.54805 0 2.36764 0 3.22222V29C0 29.8546 0.339483 30.6742 0.943767 31.2785C1.54805 31.8827 2.36764 32.2222 3.22222 32.2222ZM0 54.7778C0 55.6324 0.339483 56.452 0.943767 57.0562C1.54805 57.6605 2.36764 58 3.22222 58H22.5556C23.4101 58 24.2297 57.6605 24.834 57.0562C25.4383 56.452 25.7778 55.6324 25.7778 54.7778V41.8889C25.7778 41.0343 25.4383 40.2147 24.834 39.6104C24.2297 39.0062 23.4101 38.6667 22.5556 38.6667H3.22222C2.36764 38.6667 1.54805 39.0062 0.943767 39.6104C0.339483 40.2147 0 41.0343 0 41.8889V54.7778ZM32.2222 54.7778C32.2222 55.6324 32.5617 56.452 33.166 57.0562C33.7703 57.6605 34.5899 58 35.4444 58H54.7778C55.6324 58 56.452 57.6605 57.0562 57.0562C57.6605 56.452 58 55.6324 58 54.7778V32.2222C58 31.3676 57.6605 30.5481 57.0562 29.9438C56.452 29.3395 55.6324 29 54.7778 29H35.4444C34.5899 29 33.7703 29.3395 33.166 29.9438C32.5617 30.5481 32.2222 31.3676 32.2222 32.2222V54.7778ZM35.4444 22.5556H54.7778C55.6324 22.5556 56.452 22.2161 57.0562 21.6118C57.6605 21.0075 58 20.1879 58 19.3333V3.22222C58 2.36764 57.6605 1.54805 57.0562 0.943767C56.452 0.339483 55.6324 0 54.7778 0H35.4444C34.5899 0 33.7703 0.339483 33.166 0.943767C32.5617 1.54805 32.2222 2.36764 32.2222 3.22222V19.3333C32.2222 20.1879 32.5617 21.0075 33.166 21.6118C33.7703 22.2161 34.5899 22.5556 35.4444 22.5556Z" fill="#3684DB"/>
</svg>
