<svg width="36" height="37" viewBox="0 0 36 37" fill="none" xmlns="http://www.w3.org/2000/svg">
<path d="M32.2681 9.87011L26.4331 15.613L21.1306 10.3914L26.9641 4.64852C25.1842 3.92816 23.2276 3.74238 21.3406 4.11456C19.4537 4.48675 17.7208 5.40026 16.3601 6.74007C14.9995 8.07987 14.072 9.78606 13.6944 11.6438C13.3168 13.5015 13.5059 15.4277 14.2381 17.1797L4.82408 26.446C4.68466 26.583 4.57405 26.7458 4.49859 26.9249C4.42312 27.1041 4.38428 27.2961 4.38428 27.49C4.38428 27.684 4.42312 27.876 4.49859 28.0552C4.57405 28.2343 4.68466 28.397 4.82408 28.5341L8.00708 31.6676C8.14626 31.8049 8.31157 31.9137 8.49354 31.988C8.67551 32.0623 8.87058 32.1006 9.06758 32.1006C9.26458 32.1006 9.45965 32.0623 9.64162 31.988C9.82359 31.9137 9.9889 31.8049 10.1281 31.6676L19.5406 22.3999C21.3205 23.1212 23.2774 23.3078 25.1649 22.9363C27.0523 22.5647 28.7858 21.6515 30.1471 20.3118C31.5074 18.9714 32.4346 17.2648 32.8121 15.4068C33.1895 13.5488 33.0002 11.6225 32.2681 9.87011Z" fill="white"/>
</svg>
