<svg width="87" height="58" viewBox="0 0 87 58" fill="none" xmlns="http://www.w3.org/2000/svg">
<path d="M9.66667 0C4.3349 0 0 4.3349 0 9.66667V48.3333C0 53.6651 4.3349 58 9.66667 58H77.3333C82.6651 58 87 53.6651 87 48.3333V9.66667C87 4.3349 82.6651 0 77.3333 0H9.66667ZM19.3333 48.3333H9.66667V38.6667C14.9984 38.6667 19.3333 43.0016 19.3333 48.3333ZM9.66667 19.3333V9.66667H19.3333C19.3333 14.9984 14.9984 19.3333 9.66667 19.3333ZM67.6667 48.3333C67.6667 43.0016 72.0016 38.6667 77.3333 38.6667V48.3333H67.6667ZM77.3333 19.3333C72.0016 19.3333 67.6667 14.9984 67.6667 9.66667H77.3333V19.3333ZM43.5 14.5C47.3456 14.5 51.0338 16.0277 53.7531 18.747C56.4723 21.4662 58 25.1544 58 29C58 32.8456 56.4723 36.5338 53.7531 39.2531C51.0338 41.9723 47.3456 43.5 43.5 43.5C39.6544 43.5 35.9662 41.9723 33.247 39.2531C30.5277 36.5338 29 32.8456 29 29C29 25.1544 30.5277 21.4662 33.247 18.747C35.9662 16.0277 39.6544 14.5 43.5 14.5Z" fill="#808080"/>
</svg>
