<svg width="35" height="32" viewBox="0 0 35 32" fill="none" xmlns="http://www.w3.org/2000/svg">
<path d="M35 9.14454C32.0612 8.99677 29.1457 9.69486 26.6637 11.1406C26.0635 10.5159 25.4466 9.89115 24.7964 9.29691L24.3129 8.88551L24.5463 8.70266C25.3617 8.06303 25.9427 7.21022 26.211 6.25932C26.4793 5.30841 26.422 4.30517 26.0469 3.38496C25.5049 2.34607 24.6444 1.47338 23.57 0.872898C22.4957 0.272416 21.2536 -0.0300121 19.9947 0.00235039V3.04975C20.5879 3.0422 21.1726 3.17943 21.6884 3.44727C22.2042 3.71511 22.6325 4.10387 22.9291 4.57344C23.2125 5.18292 22.9291 5.85335 22.1455 6.56949L21.762 6.88946C20.023 5.56515 18.1138 4.43947 16.0767 3.53733C11.8585 1.80031 9.69112 2.60787 8.62408 3.53733C8.29894 3.83519 8.03868 4.1868 7.85714 4.57344L7.55704 5.381L5.1562 11.9939C7.05686 16.3212 11.6585 24.0158 21.662 27.3375L29.9982 24.8081C30.2794 24.7125 30.527 24.5493 30.7152 24.3358L31.0653 24.0615C33.4495 21.8674 31.9156 17.6468 28.7145 13.548C30.6152 12.5342 32.8038 12.062 35 12.1919V9.14454ZM28.6811 21.8979H28.5811C27.4307 22.4617 22.6623 21.0294 17.2604 16.0926C16.6936 15.5745 16.1601 15.0717 15.6766 14.5689C15.5098 14.4013 15.3598 14.2184 15.1931 14.0356L14.3094 13.0604L13.8426 12.4662C13.6092 12.1767 13.3757 11.8872 13.1757 11.6129C12.9756 11.3387 12.9089 11.2168 12.7755 11.0187C12.6422 10.8206 12.4087 10.5006 12.2587 10.2416C12.1086 9.98257 12.0419 9.87591 11.9419 9.67783C11.8419 9.47975 11.6585 9.25119 11.5584 9.03788C11.4584 8.82456 11.4084 8.68743 11.325 8.51982C11.2417 8.35221 11.1416 8.10842 11.0749 7.91034C11.0082 7.71226 10.9916 7.62084 10.9582 7.46847C10.9249 7.3161 10.8582 7.10278 10.8249 6.95041C10.8168 6.82863 10.8168 6.70651 10.8249 6.58472C10.8085 6.45309 10.8085 6.32019 10.8249 6.18856L11.0082 5.71622C11.2917 5.44195 12.5254 5.36577 14.7262 6.27998C16.197 6.92571 17.5886 7.71228 18.8777 8.62648C18.1749 8.90993 17.4256 9.08499 16.6602 9.14454V12.1919C18.4315 12.1001 20.1501 11.608 21.662 10.7597L22.4789 11.4606C23.2125 12.1157 23.8628 12.7709 24.463 13.3957C23.4577 14.9622 23.0584 16.7923 23.3292 18.5915L26.6637 17.9972C26.5511 17.4228 26.5511 16.8346 26.6637 16.2602C28.8145 19.2619 29.2146 21.4255 28.6811 21.8979ZM3.98912 15.2393L0.271149 25.4481C0.00280166 26.1976 -0.067656 26.9945 0.0655361 27.7737C0.198728 28.5529 0.531789 29.2922 1.03749 29.9312C1.5432 30.5702 2.20719 31.0907 2.97518 31.4503C3.74318 31.8099 4.59339 31.9982 5.4563 32C6.02356 31.995 6.58634 31.9075 7.12355 31.741L17.994 28.4345C11.8588 25.571 6.93405 20.931 3.98912 15.2393Z" fill="white"/>
</svg>
