<svg width="27" height="32" viewBox="0 0 27 32" fill="none" xmlns="http://www.w3.org/2000/svg">
<path d="M7.71429 0C8.78103 0 9.64286 0.89375 9.64286 2V4H17.3571V2C17.3571 0.89375 18.219 0 19.2857 0C20.3525 0 21.2143 0.89375 21.2143 2V4H24.1071C25.7042 4 27 5.34375 27 7V10H0V7C0 5.34375 1.29576 4 2.89286 4H5.78571V2C5.78571 0.89375 6.64754 0 7.71429 0ZM0 12H27V29C27 30.6562 25.7042 32 24.1071 32H2.89286C1.29576 32 0 30.6562 0 29V12ZM3.85714 17V19C3.85714 19.55 4.29107 20 4.82143 20H6.75C7.28036 20 7.71429 19.55 7.71429 19V17C7.71429 16.45 7.28036 16 6.75 16H4.82143C4.29107 16 3.85714 16.45 3.85714 17ZM11.5714 17V19C11.5714 19.55 12.0054 20 12.5357 20H14.4643C14.9946 20 15.4286 19.55 15.4286 19V17C15.4286 16.45 14.9946 16 14.4643 16H12.5357C12.0054 16 11.5714 16.45 11.5714 17ZM20.25 16C19.7196 16 19.2857 16.45 19.2857 17V19C19.2857 19.55 19.7196 20 20.25 20H22.1786C22.7089 20 23.1429 19.55 23.1429 19V17C23.1429 16.45 22.7089 16 22.1786 16H20.25ZM3.85714 25V27C3.85714 27.55 4.29107 28 4.82143 28H6.75C7.28036 28 7.71429 27.55 7.71429 27V25C7.71429 24.45 7.28036 24 6.75 24H4.82143C4.29107 24 3.85714 24.45 3.85714 25ZM12.5357 24C12.0054 24 11.5714 24.45 11.5714 25V27C11.5714 27.55 12.0054 28 12.5357 28H14.4643C14.9946 28 15.4286 27.55 15.4286 27V25C15.4286 24.45 14.9946 24 14.4643 24H12.5357ZM19.2857 25V27C19.2857 27.55 19.7196 28 20.25 28H22.1786C22.7089 28 23.1429 27.55 23.1429 27V25C23.1429 24.45 22.7089 24 22.1786 24H20.25C19.7196 24 19.2857 24.45 19.2857 25Z" fill="white"/>
</svg>
