<svg width="35" height="32" viewBox="0 0 35 32" fill="none" xmlns="http://www.w3.org/2000/svg">
<path d="M24.5 0H10.5C4.70925 0 0 4.3056 0 9.6V30.4C0 30.8243 0.184374 31.2313 0.512563 31.5314C0.840752 31.8314 1.28587 32 1.75 32H24.5C30.2908 32 35 27.6944 35 22.4V9.6C35 4.3056 30.2908 0 24.5 0Z" fill="white"/>
<path d="M17.4255 4.36365C13.73 4.36365 10.7234 7.54463 10.7234 11.4546H13.4042C13.4042 9.10888 15.2085 7.20001 17.4255 7.20001C19.6426 7.20001 21.4468 9.10888 21.4468 11.4546C21.4468 12.9706 20.8382 13.5322 19.4616 14.6526C18.9496 15.0695 18.3719 15.5403 17.8183 16.1246C16.0596 17.9839 16.0784 19.8176 16.0851 19.9636V22.8H18.7659V19.9509C18.7659 19.9169 18.7968 19.0986 19.7136 18.1299C20.1426 17.6761 20.6278 17.2819 21.0956 16.9004C22.5165 15.7431 24.1276 14.4327 24.1276 11.4546C24.1276 7.54463 21.1211 4.36365 17.4255 4.36365ZM16.0851 24.2182H18.7659V27.0546H16.0851V24.2182Z" fill="#3684DB"/>
</svg>
