<svg width="63" height="63" viewBox="0 0 63 63" fill="none" xmlns="http://www.w3.org/2000/svg">
<path d="M42 36.75H43.3125C45.4834 36.75 47.25 34.9834 47.25 32.8125V9.1875C47.25 7.01662 45.4834 5.25 43.3125 5.25H9.1875C7.01662 5.25 5.25 7.01662 5.25 9.1875V47.25L19.2491 36.75H42ZM17.5009 31.5L10.5 36.75V10.5H42V31.5H17.5009Z" fill="#808080"/>
<path d="M53.8125 21H52.5V36.7526C52.5 39.6401 50.1559 41.9842 47.2763 42H21V43.3125C21 45.4834 22.7666 47.25 24.9375 47.25H43.7509L57.75 57.75V24.9375C57.75 22.7666 55.9834 21 53.8125 21Z" fill="#808080"/>
</svg>
