<svg width="35" height="32" viewBox="0 0 35 32" fill="none" xmlns="http://www.w3.org/2000/svg">
<path d="M23.3334 18.6666H24.0626C25.2686 18.6666 26.2501 17.7693 26.2501 16.6666V4.66663C26.2501 3.56396 25.2686 2.66663 24.0626 2.66663H5.10425C3.89821 2.66663 2.91675 3.56396 2.91675 4.66663V24L10.694 18.6666H23.3334ZM9.72279 16L5.83341 18.6666V5.33329H23.3334V16H9.72279Z" fill="white"/>
<path d="M29.8959 10.6666H29.1667V18.668C29.1667 20.1346 27.8645 21.3253 26.2647 21.3333H11.6667V22C11.6667 23.1026 12.6482 24 13.8542 24H24.3061L32.0834 29.3333V12.6666C32.0834 11.564 31.102 10.6666 29.8959 10.6666Z" fill="white"/>
</svg>
