<svg width="13" height="13" viewBox="0 0 13 13" fill="none" xmlns="http://www.w3.org/2000/svg">
<path d="M13 6.03571C13 9.36987 10.0904 12.0714 6.50038 12.0714C5.55844 12.0714 4.66474 11.8857 3.85736 11.552C3.55523 11.8045 3.06268 12.1498 2.47873 12.44C1.86939 12.7417 1.13565 13 0.406979 13C0.24195 13 0.0946928 12.8868 0.0312199 12.7127C-0.032253 12.5386 0.00329183 12.3413 0.117543 12.2078L0.12516 12.1991C0.132777 12.1904 0.142932 12.1788 0.158166 12.1585C0.186094 12.1237 0.229255 12.0685 0.282573 11.9931C0.386668 11.848 0.526308 11.6333 0.668488 11.3663C0.922379 10.8846 1.16358 10.252 1.21182 9.54107C0.450141 8.55446 0.000752918 7.34442 0.000752918 6.03571C0.000752918 2.70156 2.91035 0 6.50038 0C10.0904 0 13 2.70156 13 6.03571Z" fill="white"/>
</svg>
