<svg width="44" height="44" viewBox="0 0 44 44" fill="none" xmlns="http://www.w3.org/2000/svg">
<path d="M34 10H10C9.20435 10 8.44129 10.3161 7.87868 10.8787C7.31607 11.4413 7 12.2044 7 13V31C7 31.7956 7.31607 32.5587 7.87868 33.1213C8.44129 33.6839 9.20435 34 10 34H34C34.7956 34 35.5587 33.6839 36.1213 33.1213C36.6839 32.5587 37 31.7956 37 31V13C37 12.2044 36.6839 11.4413 36.1213 10.8787C35.5587 10.3161 34.7956 10 34 10ZM34 17.05L22 25.051L10 17.05V13.4455L22 21.445L34 13.4455V17.05Z" fill="white"/>
</svg>
