<svg width="32" height="42" viewBox="0 0 32 42" fill="none" xmlns="http://www.w3.org/2000/svg">
<path d="M5.33333 2.625C3.85833 2.625 2.66667 3.79805 2.66667 5.25V10.5C1.19167 10.5 0 11.673 0 13.125C0 14.577 1.19167 15.75 2.66667 15.75V18.375C1.19167 18.375 0 19.548 0 21C0 22.452 1.19167 23.625 2.66667 23.625V28.875V36.75C2.66667 38.202 3.85833 39.375 5.33333 39.375C6.80833 39.375 8 38.202 8 36.75V31.5H14.6667C20.3667 31.5 25.3083 28.3008 27.7333 23.625H29.3333C30.8083 23.625 32 22.452 32 21C32 19.548 30.8083 18.375 29.3333 18.375H29.275C29.3167 17.9402 29.3333 17.5055 29.3333 17.0625C29.3333 16.6195 29.3167 16.1848 29.275 15.75H29.3333C30.8083 15.75 32 14.577 32 13.125C32 11.673 30.8083 10.5 29.3333 10.5H27.7333C25.3083 5.82422 20.3667 2.625 14.6667 2.625H5.33333ZM21.2 10.5H8V7.875H14.6667C17.2083 7.875 19.5167 8.87578 21.2 10.5ZM8 15.75H23.9083C23.9667 16.1766 24 16.6195 24 17.0625C24 17.5055 23.9667 17.9484 23.9083 18.375H8V15.75ZM21.2 23.625C19.5167 25.2492 17.2083 26.25 14.6667 26.25H8V23.625H21.2Z" fill="white"/>
</svg>
