<svg width="35" height="32" viewBox="0 0 35 32" fill="none" xmlns="http://www.w3.org/2000/svg">
<path d="M32.9494 27.867H31.6061V15.3851C31.6061 10.831 25.4238 7.20166 17.7106 7.20166H17.6428C9.92961 7.20166 3.60606 10.831 3.60606 15.3851V27.867H2.19185C1.02052 27.867 0 28.3651 0 29.0568V30.685C0 31.3767 1.02052 32.0001 2.19185 32.0001H32.9494C34.121 32.0001 35 31.3767 35 30.685V29.0568C35 28.3651 34.1208 27.867 32.9494 27.867ZM17.6428 10.2075H17.6061V12.2114H17.6428C14.6205 12.2114 12.1615 13.7144 12.1615 15.4678H8.76761C8.76761 12.5872 12.7489 10.2075 17.6428 10.2075Z" fill="white"/>
<path d="M17.606 4.13307C18.5432 4.13307 19.303 3.68444 19.303 3.13111V1.00196C19.303 0.448626 18.5432 0 17.606 0C16.6689 0 15.9091 0.448626 15.9091 1.00196V3.13111C15.9091 3.68444 16.6689 4.13307 17.606 4.13307Z" fill="white"/>
<path d="M10.3271 5.32519C10.6586 5.52082 11.0926 5.61864 11.5271 5.61864C11.9615 5.61864 12.3957 5.52082 12.727 5.32519C13.3897 4.9338 13.3897 4.29956 12.727 3.90805L10.1773 2.40248C9.51446 2.01135 8.44027 2.01135 7.7774 2.40248C7.11473 2.79387 7.11473 3.42824 7.7774 3.81963L10.3271 5.32519Z" fill="white"/>
<path d="M23.8265 5.61852C24.261 5.61852 24.6954 5.52071 25.0265 5.32495L27.5762 3.81926C28.2389 3.42799 28.2389 2.79363 27.576 2.40237C26.9131 2.01098 25.8385 2.0111 25.1761 2.40249L22.6264 3.90806C21.9637 4.29932 21.9637 4.93368 22.6266 5.32507C22.9581 5.52083 23.3921 5.61852 23.8265 5.61852Z" fill="white"/>
</svg>
