<svg width="35" height="36" viewBox="0 0 35 36" fill="none" xmlns="http://www.w3.org/2000/svg">
<path d="M27.3781 3H7.84148C7.10127 3 6.39139 3.31607 5.86798 3.87868C5.34458 4.44129 5.05054 5.20435 5.05054 6V25.5C5.05054 26.2956 5.34458 27.0587 5.86798 27.6213C6.39139 28.1839 7.10127 28.5 7.84148 28.5H13.4234L17.6098 33L21.7962 28.5H27.3781C28.1183 28.5 28.8282 28.1839 29.3516 27.6213C29.875 27.0587 30.169 26.2956 30.169 25.5V6C30.169 5.20435 29.875 4.44129 29.3516 3.87868C28.8282 3.31607 28.1183 3 27.3781 3ZM17.6098 7.5C20.0197 7.5 21.7962 9.408 21.7962 12C21.7962 14.592 20.0197 16.5 17.6098 16.5C15.2012 16.5 13.4234 14.592 13.4234 12C13.4234 9.408 15.2012 7.5 17.6098 7.5ZM10.8794 24C11.6581 21.4155 14.3625 19.5 17.6098 19.5C20.857 19.5 23.5628 21.4155 24.3401 24H10.8794Z" fill="white"/>
</svg>
